<svg width="168" height="22" viewBox="0 0 168 22" fill="none" xmlns="http://www.w3.org/2000/svg">
<path d="M0.493591 0L10.8375 18.5542L22.1409 0.465899L0.493591 0Z" fill="#4CAF4F"/>
<path d="M26.251 0L37.1011 18.4506H15.3799L26.251 0Z" fill="#4CAF4F"/>
<path d="M54.3179 17.3512V1.69226H59.6357C60.8704 1.69226 61.8797 1.914 62.6635 2.35746C63.4525 2.79583 64.0365 3.38967 64.4157 4.13898C64.7948 4.88828 64.9843 5.72425 64.9843 6.64686C64.9843 7.56948 64.7948 8.40799 64.4157 9.16239C64.0417 9.91679 63.4628 10.5183 62.6789 10.9668C61.8951 11.4103 60.8909 11.632 59.6665 11.632H55.8548V9.94993H59.605C60.4503 9.94993 61.1291 9.80465 61.6415 9.5141C62.1538 9.22356 62.5252 8.83106 62.7557 8.33662C62.9914 7.83709 63.1093 7.27383 63.1093 6.64686C63.1093 6.01989 62.9914 5.45918 62.7557 4.96474C62.5252 4.4703 62.1512 4.08291 61.6338 3.80255C61.1163 3.5171 60.4298 3.37438 59.5743 3.37438H56.2237V17.3512H54.3179Z" fill="black"/>
<path d="M67.8085 17.3512V5.60701H69.5606V7.38088H69.6836C69.8988 6.79978 70.2881 6.32828 70.8517 5.96637C71.4152 5.60446 72.0505 5.4235 72.7575 5.4235C72.8907 5.4235 73.0572 5.42605 73.257 5.43115C73.4568 5.43625 73.6079 5.44389 73.7104 5.45409V7.28912C73.6489 7.27383 73.508 7.25089 73.2878 7.22031C73.0726 7.18463 72.8446 7.16679 72.6038 7.16679C72.03 7.16679 71.5177 7.28657 71.0668 7.52615C70.6211 7.76063 70.2676 8.08685 70.0063 8.50484C69.7502 8.91772 69.6221 9.38922 69.6221 9.91934V17.3512H67.8085Z" fill="black"/>
<path d="M80.2963 17.5959C79.2306 17.5959 78.2957 17.3436 77.4913 16.839C76.6921 16.3343 76.0671 15.6283 75.6162 14.721C75.1705 13.8137 74.9477 12.7535 74.9477 11.5403C74.9477 10.3169 75.1705 9.24904 75.6162 8.33662C76.0671 7.4242 76.6921 6.71567 77.4913 6.21104C78.2957 5.70641 79.2306 5.45409 80.2963 5.45409C81.3619 5.45409 82.2943 5.70641 83.0935 6.21104C83.8979 6.71567 84.5229 7.4242 84.9686 8.33662C85.4195 9.24904 85.6449 10.3169 85.6449 11.5403C85.6449 12.7535 85.4195 13.8137 84.9686 14.721C84.5229 15.6283 83.8979 16.3343 83.0935 16.839C82.2943 17.3436 81.3619 17.5959 80.2963 17.5959ZM80.2963 15.975C81.1057 15.975 81.7717 15.7685 82.2943 15.3556C82.8169 14.9428 83.2037 14.3999 83.4547 13.727C83.7058 13.0542 83.8313 12.3253 83.8313 11.5403C83.8313 10.7553 83.7058 10.0238 83.4547 9.34589C83.2037 8.66795 82.8169 8.11999 82.2943 7.70201C81.7717 7.28403 81.1057 7.07504 80.2963 7.07504C79.4868 7.07504 78.8208 7.28403 78.2982 7.70201C77.7757 8.11999 77.3889 8.66795 77.1378 9.34589C76.8868 10.0238 76.7613 10.7553 76.7613 11.5403C76.7613 12.3253 76.8868 13.0542 77.1378 13.727C77.3889 14.3999 77.7757 14.9428 78.2982 15.3556C78.8208 15.7685 79.4868 15.975 80.2963 15.975Z" fill="black"/>
<path d="M90.834 17.3512H87.2683L92.7014 1.69226H96.9895L102.415 17.3512H98.8493L94.907 5.27058H94.784L90.834 17.3512ZM90.6112 11.1962H99.0337V13.7806H90.6112V11.1962Z" fill="black"/>
<path d="M109.016 22C107.956 22 107.046 21.8547 106.288 21.5642C105.535 21.2787 104.936 20.8888 104.49 20.3943C104.044 19.8999 103.755 19.3443 103.622 18.7275L106.649 18.3223C106.742 18.5568 106.888 18.7759 107.087 18.9798C107.287 19.1837 107.551 19.3468 107.879 19.4692C108.212 19.5966 108.617 19.6603 109.093 19.6603C109.805 19.6603 110.392 19.487 110.853 19.1404C111.319 18.7989 111.552 18.2254 111.552 17.4201V15.2715H111.414C111.27 15.5978 111.055 15.9061 110.768 16.1967C110.481 16.4872 110.113 16.7243 109.662 16.9078C109.211 17.0913 108.673 17.183 108.048 17.183C107.162 17.183 106.355 16.9791 105.627 16.5714C104.905 16.1585 104.329 15.5289 103.898 14.6828C103.473 13.8315 103.26 12.756 103.26 11.4562C103.26 10.1258 103.478 9.01457 103.914 8.12254C104.349 7.2305 104.928 6.56276 105.65 6.11929C106.378 5.67582 107.174 5.45409 108.04 5.45409C108.701 5.45409 109.254 5.56623 109.7 5.79051C110.146 6.0097 110.505 6.28495 110.776 6.61628C111.053 6.94251 111.265 7.26364 111.414 7.57967H111.537V5.60701H114.788V17.4659C114.788 18.465 114.542 19.301 114.05 19.9738C113.558 20.6467 112.877 21.1513 112.006 21.4877C111.14 21.8292 110.143 22 109.016 22ZM109.085 14.7363C109.613 14.7363 110.059 14.6063 110.423 14.3464C110.791 14.0813 111.073 13.7041 111.268 13.2148C111.468 12.7203 111.568 12.129 111.568 11.4409C111.568 10.7528 111.47 10.1564 111.276 9.65173C111.081 9.142 110.799 8.74696 110.43 8.46661C110.061 8.18625 109.613 8.04608 109.085 8.04608C108.547 8.04608 108.094 8.19135 107.725 8.4819C107.356 8.76735 107.077 9.16494 106.888 9.67467C106.698 10.1844 106.603 10.7731 106.603 11.4409C106.603 12.1188 106.698 12.705 106.888 13.1995C107.082 13.6888 107.361 14.0686 107.725 14.3387C108.094 14.6038 108.547 14.7363 109.085 14.7363Z" fill="black"/>
<path d="M122.772 17.5806C121.558 17.5806 120.513 17.3359 119.637 16.8466C118.766 16.3522 118.095 15.6538 117.623 14.7516C117.152 13.8443 116.916 12.7713 116.916 11.5326C116.916 10.3246 117.152 9.26434 117.623 8.35192C118.095 7.43949 118.758 6.72842 119.614 6.21869C120.474 5.70895 121.484 5.45409 122.641 5.45409C123.42 5.45409 124.145 5.57897 124.816 5.82874C125.492 6.07341 126.082 6.44297 126.584 6.93741C127.091 7.43185 127.485 8.05372 127.767 8.80303C128.049 9.54724 128.19 10.4189 128.19 11.418V12.3125H118.223V10.294H125.108C125.108 9.82504 125.006 9.40961 124.801 9.0477C124.596 8.68579 124.312 8.40289 123.948 8.199C123.589 7.99001 123.172 7.88551 122.695 7.88551C122.198 7.88551 121.758 8.0002 121.373 8.22958C120.994 8.45386 120.697 8.75715 120.482 9.13945C120.267 9.51665 120.157 9.93718 120.151 10.401V12.3202C120.151 12.9013 120.259 13.4034 120.474 13.8264C120.695 14.2495 121.004 14.5757 121.404 14.8051C121.804 15.0345 122.278 15.1492 122.826 15.1492C123.19 15.1492 123.523 15.0982 123.825 14.9963C124.127 14.8943 124.386 14.7414 124.601 14.5375C124.816 14.3336 124.98 14.0839 125.093 13.7882L128.121 13.987C127.967 14.7108 127.652 15.3429 127.175 15.8832C126.704 16.4184 126.094 16.8364 125.346 17.1372C124.604 17.4328 123.745 17.5806 122.772 17.5806Z" fill="black"/>
<path d="M133.6 10.5616V17.3512H130.326V5.60701H133.446V7.67907H133.584C133.846 6.99603 134.284 6.45571 134.899 6.05812C135.513 5.65543 136.259 5.45409 137.135 5.45409C137.955 5.45409 138.669 5.63249 139.279 5.98931C139.889 6.34612 140.362 6.85585 140.701 7.5185C141.039 8.17606 141.208 8.96105 141.208 9.87347V17.3512H137.934V10.4546C137.939 9.73584 137.755 9.17513 137.381 8.77244C137.007 8.36466 136.492 8.16077 135.836 8.16077C135.396 8.16077 135.006 8.25507 134.668 8.44367C134.335 8.63227 134.074 8.90752 133.884 9.26943C133.7 9.62625 133.605 10.057 133.6 10.5616Z" fill="black"/>
<path d="M149.121 17.5806C147.912 17.5806 146.872 17.3258 146.001 16.816C145.135 16.3012 144.469 15.5876 144.003 14.6751C143.542 13.7627 143.311 12.7127 143.311 11.525C143.311 10.322 143.545 9.26688 144.011 8.35956C144.482 7.44714 145.151 6.73606 146.017 6.22633C146.882 5.7115 147.912 5.45409 149.106 5.45409C150.136 5.45409 151.037 5.64014 151.811 6.01224C152.584 6.38435 153.197 6.90682 153.648 7.57967C154.098 8.25252 154.347 9.0426 154.393 9.94993H151.304C151.217 9.36373 150.986 8.89223 150.612 8.53542C150.243 8.17351 149.759 7.99255 149.16 7.99255C148.652 7.99255 148.209 8.13018 147.83 8.40544C147.456 8.6756 147.164 9.07064 146.954 9.59057C146.744 10.1105 146.639 10.74 146.639 11.4791C146.639 12.2284 146.741 12.8656 146.946 13.3906C147.156 13.9156 147.451 14.3158 147.83 14.591C148.209 14.8663 148.652 15.0039 149.16 15.0039C149.534 15.0039 149.869 14.9275 150.166 14.7745C150.469 14.6216 150.717 14.3999 150.912 14.1093C151.112 13.8137 151.242 13.4594 151.304 13.0465H154.393C154.342 13.9437 154.096 14.7338 153.655 15.4168C153.22 16.0947 152.618 16.6249 151.849 17.0072C151.081 17.3895 150.171 17.5806 149.121 17.5806Z" fill="black"/>
<path d="M158.51 21.7553C158.095 21.7553 157.706 21.7222 157.342 21.6559C156.983 21.5948 156.686 21.5158 156.451 21.4189L157.188 18.9875C157.573 19.1047 157.918 19.1684 158.226 19.1786C158.538 19.1888 158.807 19.1175 159.033 18.9645C159.263 18.8116 159.45 18.5517 159.594 18.1847L159.786 17.6877L155.551 5.60701H158.994L161.438 14.2317H161.561L164.028 5.60701H167.494L162.906 18.6205C162.685 19.2525 162.386 19.8031 162.007 20.272C161.633 20.7461 161.159 21.1105 160.585 21.3654C160.011 21.6253 159.32 21.7553 158.51 21.7553Z" fill="black"/>
</svg>
